<svg xmlns="http://www.w3.org/2000/svg" width="19" height="23" viewBox="0 0 19 23"><g><g><g><g><g><g><path fill="#fff" d="M2.197 22.64c-1.023 0-1.827-.79-1.827-1.796V2.157C.37 1.151 1.174.36 2.197.36h11.254c.402 0 .767.144 1.023.432l3.727 3.665c.292.287.439.646.439 1.006v15.38c0 1.007-.804 1.798-1.828 1.798z"/></g><g><path fill="#ff2116" d="M13.446 0c.475 0 .914.18 1.28.54l3.726 3.665c.365.323.548.79.548 1.257v15.38C19 22.03 18.013 23 16.808 23H2.192C.987 22.999 0 22.029 0 20.843V2.156C0 .97.987 0 2.192 0zM2.192.72c-.804 0-1.46.646-1.46 1.436v18.687c0 .79.656 1.437 1.46 1.437h14.616c.804 0 1.46-.647 1.46-1.437V5.463c0-.288-.109-.54-.328-.755l-3.727-3.665c-.182-.216-.475-.324-.767-.324z"/></g></g></g></g><g><g><path fill="#ff2116" d="M10.983 10.039a7.97 7.97 0 0 1 1.176-.114c.34-.006.614.015.785.048a.646.646 0 0 1 .366.19.38.38 0 0 1 .083.337c-.026.14-.13.243-.277.3a.951.951 0 0 1-.533.029 3.676 3.676 0 0 1-.88-.327 4.954 4.954 0 0 1-.72-.463zm-.956.011a19.214 19.214 0 0 0-1.147.272c-.177.05-.351.102-.522.16.1-.173.193-.342.278-.506.085-.165.161-.326.224-.482.08-.18.161-.366.24-.554.078-.187.154-.376.225-.566A7.489 7.489 0 0 0 10.2 9.52c.132.146.27.287.414.419-.188.033-.385.07-.587.11zm-4.853 2.343c.045-.206.279-.44.66-.685.383-.245.914-.5 1.552-.747-.36.56-.72 1.012-1.043 1.325-.324.313-.611.486-.828.486a.346.346 0 0 1-.123-.023.542.542 0 0 1-.11-.06.346.346 0 0 1-.095-.141.3.3 0 0 1-.013-.155zm3.525-7.065a.406.406 0 0 1 .133-.133.338.338 0 0 1 .173-.048c.125 0 .225.05.291.146.068.097.103.24.103.428 0 .197-.036.46-.103.767-.067.308-.166.66-.291 1.036C8.753 7 8.627 6.53 8.589 6.15c-.038-.378.011-.665.11-.82zm5.162 4.842c-.126-.123-.333-.222-.603-.29a4.12 4.12 0 0 0-.98-.106c-.216 0-.445.013-.686.036-.24.022-.492.055-.753.097a6.948 6.948 0 0 1-.9-.939c-.099-.132-.197-.263-.291-.395a6.62 6.62 0 0 1-.265-.396c.134-.387.251-.766.335-1.117.083-.353.132-.677.132-.957 0-.206-.036-.482-.157-.706A.716.716 0 0 0 9.023 5a.593.593 0 0 0-.268.067.507.507 0 0 0-.2.18c-.135.221-.175.592-.117 1.037.059.445.216.963.476 1.481-.09.247-.19.498-.297.76-.108.261-.225.533-.35.822a13.024 13.024 0 0 1-.738 1.398c-.738.272-1.345.556-1.779.834-.434.277-.694.549-.74.796a.413.413 0 0 0 .014.235.535.535 0 0 0 .149.21.884.884 0 0 0 .54.18c.422 0 .872-.284 1.304-.715.432-.43.846-1.006 1.196-1.59a12.67 12.67 0 0 1 1.241-.346 14.288 14.288 0 0 1 1.332-.263c.513.427.994.662 1.405.79.412.127.754.148.987.148.28 0 .456-.04.574-.102a.475.475 0 0 0 .218-.243.529.529 0 0 0 .015-.302.441.441 0 0 0-.124-.207z"/></g></g><g><g><path fill="#2c2c2c" d="M6.52 16.437l.05-.003.066-.003c.024 0 .05 0 .078-.002h.084c.098 0 .185.01.26.032.077.022.141.055.194.097a.42.42 0 0 1 .12.163c.027.064.041.14.041.226 0 .107-.02.194-.055.265a.422.422 0 0 1-.146.166.613.613 0 0 1-.21.085 1.133 1.133 0 0 1-.247.025h-.076l-.06-.001-.05-.001c-.017 0-.033-.002-.05-.003zm-.52.338v2.186c0 .005 0 .01.002.014a.02.02 0 0 0 .006.01.023.023 0 0 0 .01.005.07.07 0 0 0 .015.001h.454a.07.07 0 0 0 .015-.001.023.023 0 0 0 .01-.006.02.02 0 0 0 .006-.01l.002-.013v-1.044l.052.001c.016 0 .031 0 .048.002l.054.001.071.001c.166 0 .322-.018.465-.056.142-.039.27-.097.379-.178a.831.831 0 0 0 .255-.306c.06-.125.093-.272.093-.444a.992.992 0 0 0-.067-.37.798.798 0 0 0-.21-.297.99.99 0 0 0-.36-.199A1.704 1.704 0 0 0 6.78 16h-.213a211.32 211.32 0 0 0-.381.008 6.334 6.334 0 0 0-.171.009.014.014 0 0 0-.01.006.03.03 0 0 0-.003.01L6 16.043l-.001.73z"/></g><g><path fill="#2c2c2c" d="M8.976 16.438l.061-.003.063-.003c.021 0 .043 0 .066-.002h.071c.128 0 .25.017.36.055a.767.767 0 0 1 .487.498c.045.131.07.29.068.474 0 .19-.027.355-.072.495a.947.947 0 0 1-.195.347.79.79 0 0 1-.295.204.978.978 0 0 1-.37.068l-.065-.001-.06-.002-.06-.003-.059-.003v-2.124zm-.524-.388l-.002.725v2.18c0 .006 0 .011.002.015l.005.012a.024.024 0 0 0 .01.007.032.032 0 0 0 .013.002l.134.004A60.514 60.514 0 0 0 9.21 19c.162 0 .336-.023.506-.075a1.39 1.39 0 0 0 .482-.255c.145-.12.271-.277.36-.479.09-.201.142-.448.142-.747 0-.215-.03-.413-.091-.588a1.234 1.234 0 0 0-.274-.456 1.202 1.202 0 0 0-.456-.295A1.826 1.826 0 0 0 9.24 16a21.008 21.008 0 0 0-.458.005l-.177.005-.118.004a.074.074 0 0 0-.018.004c-.005.002-.008.005-.01.007l-.005.01-.001.015z"/></g><g><path fill="#2c2c2c" d="M11.803 18.955c0 .007 0 .012-.002.017a.022.022 0 0 1-.005.011c-.003.003-.007.004-.01.006a.07.07 0 0 1-.016.002h-.457a.07.07 0 0 1-.015-.002.025.025 0 0 1-.01-.006.02.02 0 0 1-.006-.011.082.082 0 0 1-.002-.017V16.041c0-.006 0-.01.002-.014a.02.02 0 0 1 .005-.01.023.023 0 0 1 .01-.005.07.07 0 0 1 .016-.002h1.598c.007 0 .013 0 .018.002.004 0 .007.002.01.005s.005.006.006.01c.002.003.003.008.004.014l.012.094.013.094.012.094.012.095v.016a.023.023 0 0 1-.007.011.035.035 0 0 1-.013.007l-.019.001h-1.158v.848h1.04l.014.001c.005.001.008.003.01.005a.017.017 0 0 1 .006.01l.002.016v.377c0 .007 0 .012-.002.016a.017.017 0 0 1-.005.01c-.003.003-.007.003-.01.004l-.016.001h-1.038v.911l.001.303z"/></g></g></g></g></svg>