<svg xmlns="http://www.w3.org/2000/svg" width="139" height="39" viewBox="0 0 139 39"><defs><clipPath id="vf79a"><path d="M.04.1h24.083v31.454H.04z"/></clipPath><clipPath id="vf79b"><path d="M87.71 31.69h10.035v6.797H87.71z"/></clipPath></defs><g><g><g><path fill="#4d4f50" d="M44.157 14.986v5.487a6.413 6.413 0 0 1-2.661.378c-3.625 0-5.909-2.083-5.909-5.487s2.284-5.48 6.094-5.48a9.637 9.637 0 0 1 3.618.564l.385.192.764-2.083-.393-.186a10.256 10.256 0 0 0-4.188-.756c-6.287 0-9.14 3.967-9.14 7.749a6.995 6.995 0 0 0 2.29 5.473c1.527 1.513 3.617 2.27 6.286 2.27 1.82.013 3.627-.308 5.33-.95h.193v-7.171h-2.669"/></g><g><path fill="#4d4f50" d="M51.52 22.965h2.662V7.93H51.52z"/></g><g><path fill="#4d4f50" d="M61.862 20.61V7.93H59.2v15.035h9.704V20.61h-7.042"/></g><g><path fill="#4d4f50" d="M74.852 20.61v-4.538h6.579v-2.19h-6.58V10.12h7.05V7.93H72.19v15.035h10.025V20.61h-7.363"/></g><g><path fill="#4d4f50" d="M92.17 10.934a.642.642 0 0 0-.014.028.862.862 0 0 0-.014-.028zm1.897 5.266h-4.042s1.849-4.696 2.13-5.238c.236.505 1.533 4.134 1.912 5.238zm-.56-8.27h-2.683L85.03 22.979h2.69l1.727-4.51h5.38l1.727 4.51h2.854z"/></g><g><path fill="#4d4f50" d="M114.7 9.696c-1.54-1.32-4.045-2.076-7.135-2.076h-4.995v2.27h4.995c2.305 0 4.039.563 5.195 1.512a5.474 5.474 0 0 1 1.348 3.568 5.808 5.808 0 0 1-1.541 4.16c-1.156 1.134-3.075 1.705-5.387 1.705h-1.906v-6.979h-2.697v9.077h.193c1.341.17 2.694.235 4.046.193 3.268 0 5.965-.95 7.699-2.462a7.335 7.335 0 0 0 2.312-5.673 7.365 7.365 0 0 0-2.14-5.295"/></g><g><g/><g clip-path="url(#vf79a)"><path fill="#b3243f" d="M24.115.1h-.186C3.907 1.984 1.402 15.327 7.945 19.644c-1.148 4.888 0 4.888 0 4.888.147-1.458.405-2.904.771-4.324C11.221 10.625 17.571 2.362 23.929.293c.193 0 .193 0 .193-.193"/></g><g clip-path="url(#vf79a)"><path fill="#b3243f" d="M22.862 3.423V3.23l-.192.193c-1.534 3.19-2.141 7.692-3.268 11.074-1.535 3.939-4.032 6.757-8.064 6.38v9.76S.771 25.95.771 18.437V4.357l8.64-.749c.193 0 .193 0 .193-.185H0v14.984c0 8.449 11.338 13.144 11.338 13.144S22.862 26.7 22.862 18.436V3.423"/></g></g><g><path fill="#747373" d="M65.115 35.48a3.204 3.204 0 0 1-2.383.971 2.95 2.95 0 0 1-2.305-.964 3.565 3.565 0 0 1-.87-2.361 3.154 3.154 0 0 1 3.19-3.354c.919-.033 1.806.34 2.425 1.02l-.856.871a2.14 2.14 0 0 0-1.499-.664 1.926 1.926 0 0 0-1.919 2.098 1.991 1.991 0 0 0 1.984 2.14 1.778 1.778 0 0 0 1.427-.656l.806.9"/></g><g><path fill="#747373" d="M67.464 31.86v.656c.06-.239.198-.45.393-.6.212-.137.46-.209.713-.206h.15v1.263h-.264a.983.983 0 0 0-.82.407c-.152.242-.214.53-.179.813v2.14H66.23V31.86h1.234"/></g><g><path fill="#747373" d="M72.138 35.399c.358-.053.673-.267.854-.58l1.127.314a2.37 2.37 0 0 1-2.14 1.356 2.32 2.32 0 0 1-2.426-2.39 2.27 2.27 0 0 1 2.354-2.377 2.32 2.32 0 0 1 2.42 2.434v.242h-3.533a1.185 1.185 0 0 0 1.344 1zm.897-1.714a1.092 1.092 0 0 0-1.142-.942 1.056 1.056 0 0 0-1.099.942z"/></g><g><path fill="#747373" d="M80.204 31.86v4.46h-1.228v-.614c-.35.494-.92.783-1.527.77a2.14 2.14 0 0 1-2.14-2.333 2.27 2.27 0 0 1 2.24-2.433 1.726 1.726 0 0 1 1.427.714v-.564zm-3.618 2.264a1.253 1.253 0 0 0 1.142 1.355l.035.003A1.325 1.325 0 0 0 79 34.074l-.001-.014a1.231 1.231 0 0 0-1.22-1.344 1.247 1.247 0 0 0-1.192 1.408z"/></g><g><path fill="#747373" d="M83.104 35.017c0 .214.078.271.342.285h.215v1.02h-.97c-.6 0-.822-.256-.814-.841v-2.605h-.507V31.85h.507V30.65h1.227v1.199h.557v1.027h-.557v2.141"/></g><g><path fill="#747373" d="M86.232 30.597a.712.712 0 1 0-1.356 0 .713.713 0 0 0 1.356 0zm-1.292 5.707h1.228V31.86H84.94z"/></g><g><g/><g clip-path="url(#vf79b)"><path fill="#747373" d="M88.937 31.856v.55c.225-.46.702-.74 1.213-.714.406-.008.8.14 1.1.414.322.38.464.882.392 1.377V36.3h-1.22v-2.747a.99.99 0 0 0-.108-.52.714.714 0 0 0-.592-.3.792.792 0 0 0-.785.877v2.705H87.71v-4.46h1.227"/></g><g clip-path="url(#vf79b)"><path fill="#747373" d="M97.73 31.86V36a2.326 2.326 0 0 1-.6 1.855 2.569 2.569 0 0 1-1.848.678 2.992 2.992 0 0 1-2.19-.885l.77-.778c.342.405.848.634 1.378.62a1.193 1.193 0 0 0 1.291-1.32v-.456a1.906 1.906 0 0 1-1.57.763 2.14 2.14 0 0 1-2.14-2.347 2.205 2.205 0 0 1 2.233-2.42 1.675 1.675 0 0 1 1.427.714l.043-.563zm-3.582 2.2a1.214 1.214 0 1 0 2.14.903c.163-.228.243-.503.229-.781a1.416 1.416 0 0 0-.328-1.038 1.235 1.235 0 0 0-.835-.348 1.183 1.183 0 0 0-1.206 1.265z"/></g></g><g><path fill="#747373" d="M102.17 36.322V29.9h2.055c1.52 0 2.383.714 2.383 2.048a2.068 2.068 0 0 1-2.297 2.14h-.82v2.234zm1.89-3.29c.764 0 1.207-.37 1.207-1.013a1.035 1.035 0 0 0-1.178-1.034h-.599v2.048z"/></g><g><path fill="#747373" d="M109.664 36.48l-.05-.001a2.383 2.383 0 1 1 0-4.767 2.333 2.333 0 0 1 2.433 2.426 2.362 2.362 0 0 1-2.383 2.342zm-1.242-2.382a1.198 1.198 0 1 0 2.39 0 1.152 1.152 0 0 0-1.184-1.301 1.177 1.177 0 0 0-1.206 1.3z"/></g><g><path fill="#747373" d="M115.263 33.148v-.078c0-.265-.235-.457-.563-.457-.329 0-.493.157-.493.4a.4.4 0 0 0 .122.292c.135.107.15.107.763.3 1.006.307 1.427.713 1.427 1.427 0 .863-.713 1.427-1.734 1.427a1.533 1.533 0 0 1-1.755-1.427h1.177c.057.385.229.557.585.557a.436.436 0 0 0 .493-.421c0-.272-.171-.4-.828-.6-.963-.292-1.427-.713-1.427-1.427 0-.85.714-1.427 1.727-1.427a1.47 1.47 0 0 1 1.67 1.427l-1.164.007"/></g><g><path fill="#747373" d="M119.783 33.154v-.079a.507.507 0 0 0-.55-.458l-.013.002c-.3 0-.493.157-.493.4-.005.11.04.217.122.292.135.107.142.107.763.3 1 .307 1.427.713 1.427 1.427 0 .863-.713 1.427-1.734 1.427a1.533 1.533 0 0 1-1.755-1.427h1.177c.057.385.229.556.585.556a.435.435 0 0 0 .493-.42c0-.272-.171-.4-.828-.6-.963-.293-1.427-.714-1.427-1.427 0-.85.714-1.427 1.727-1.427a1.428 1.428 0 0 1 1.662 1.427l-1.156.007"/></g><g><path fill="#747373" d="M123.585 30.595a.713.713 0 1 0-1.362-.423.713.713 0 0 0 1.362.423zm-1.291 5.708h1.22v-4.445h-1.22z"/></g><g><path fill="#747373" d="M125.06 36.322V29.9h1.227v2.505c.33-.457.864-.724 1.427-.714a2.24 2.24 0 0 1 2.248 2.405 2.14 2.14 0 0 1-2.183 2.362 1.697 1.697 0 0 1-1.506-.714l.014.578zm1.227-2.19a1.214 1.214 0 0 0 1.08 1.337 1.216 1.216 0 0 0 1.342-1.338 1.278 1.278 0 0 0-1.19-1.391 1.315 1.315 0 0 0-1.255 1.374l.002.017z"/></g><g><g><path fill="#747373" d="M131.27 36.322h1.22V29.9h-1.22z"/></g><g><path fill="#747373" d="M136.388 35.399c.358-.053.673-.267.854-.58l1.128.314a2.377 2.377 0 0 1-2.14 1.356 2.32 2.32 0 0 1-2.427-2.39 2.262 2.262 0 0 1 2.348-2.377 2.32 2.32 0 0 1 2.419 2.434v.242h-3.525a1.184 1.184 0 0 0 1.343 1zm.9-1.714a1.088 1.088 0 0 0-1.14-.942 1.06 1.06 0 0 0-1.103.942z"/></g></g></g></g></svg>