<svg xmlns="http://www.w3.org/2000/svg" width="117" height="33" viewBox="0 0 117 33"><defs><clipPath id="jyj3a"><path d="M.04.1h24.083v31.454H.04z"/></clipPath></defs><g><g><g><path fill="#4d4f50" d="M44.157 14.986v5.487a6.413 6.413 0 0 1-2.661.378c-3.625 0-5.909-2.083-5.909-5.487s2.284-5.48 6.094-5.48a9.637 9.637 0 0 1 3.618.564l.385.192.764-2.083-.393-.186a10.256 10.256 0 0 0-4.188-.756c-6.287 0-9.14 3.967-9.14 7.749a6.995 6.995 0 0 0 2.29 5.473c1.527 1.513 3.617 2.27 6.286 2.27 1.82.013 3.627-.308 5.33-.95h.193v-7.171h-2.669"/></g><g><path fill="#4d4f50" d="M51.52 22.965h2.662V7.93H51.52z"/></g><g><path fill="#4d4f50" d="M61.862 20.61V7.93H59.2v15.035h9.704V20.61h-7.042"/></g><g><path fill="#4d4f50" d="M74.852 20.61v-4.538h6.579v-2.19h-6.58V10.12h7.05V7.93H72.19v15.035h10.025V20.61h-7.363"/></g><g><path fill="#4d4f50" d="M92.17 10.934a.642.642 0 0 0-.014.028.862.862 0 0 0-.014-.028zm1.897 5.266h-4.042s1.849-4.696 2.13-5.238c.236.505 1.533 4.134 1.912 5.238zm-.56-8.27h-2.683L85.03 22.979h2.69l1.727-4.51h5.38l1.727 4.51h2.854z"/></g><g><path fill="#4d4f50" d="M114.7 9.696c-1.54-1.32-4.045-2.076-7.135-2.076h-4.995v2.27h4.995c2.305 0 4.039.563 5.195 1.512a5.474 5.474 0 0 1 1.348 3.568 5.808 5.808 0 0 1-1.541 4.16c-1.156 1.134-3.075 1.705-5.387 1.705h-1.906v-6.979h-2.697v9.077h.193c1.341.17 2.694.235 4.046.193 3.268 0 5.965-.95 7.699-2.462a7.335 7.335 0 0 0 2.312-5.673 7.365 7.365 0 0 0-2.14-5.295"/></g><g><g/><g clip-path="url(#jyj3a)"><path fill="#b3243f" d="M24.115.1h-.186C3.907 1.984 1.402 15.327 7.945 19.644c-1.148 4.888 0 4.888 0 4.888.147-1.458.405-2.904.771-4.324C11.221 10.625 17.571 2.362 23.929.293c.193 0 .193 0 .193-.193"/></g><g clip-path="url(#jyj3a)"><path fill="#b3243f" d="M22.862 3.423V3.23l-.192.193c-1.534 3.19-2.141 7.692-3.268 11.074-1.535 3.939-4.032 6.757-8.064 6.38v9.76S.771 25.95.771 18.437V4.357l8.64-.749c.193 0 .193 0 .193-.185H0v14.984c0 8.449 11.338 13.144 11.338 13.144S22.862 26.7 22.862 18.436V3.423"/></g></g></g></g></svg>